{
  "title": "American Ultra {2015} HDCAM XVID AC3-MRG",
  "uid": 12354194,
  "size": 1300849152,
  "categoryP": "video",
  "categoryS": "movies",
  "magnet": "?xt=urn:btih:9f85c9d7c8b075f1d7136a785f5fab4d4a74f0b5&amp;dn=American+Ultra+%7B2015%7D+HDCAM+XVID+AC3-MRG&amp;tr=udp%3A%2F%2Ftracker.openbittorrent.com%3A80&amp;tr=udp%3A%2F%2Fopen.demonii.com%3A1337&amp;tr=udp%3A%2F%2Ftracker.coppersurfer.tk%3A6969&amp;tr=udp%3A%2F%2Fexodus.desync.com%3A6969",
  "seeders": 96,
  "leechers": 36,
  "uploader": "SaM",
  "files": 14,
  "time": 1441413879,
  "description": "American Ultra {2015} HDCAM XVID AC3-MRG\n\nFormat : AVI\nFormat/Info : Audio Video Interleave\nFile size : 1.21 GiB\nDuration : 1h 26mn\nOverall bit rate : 2 008 Kbps\n\nVideo\nID : 0\nFormat : MPEG-4 Visual\nFormat profile : Advanced Simple@L5\nFormat settings, BVOP : 2\nFormat settings, QPel : No\nFormat settings, GMC : No warppoints\nFormat settings, Matrix : Default (H.263)\nCodec ID : XVID\nCodec ID/Hint : XviD\nDuration : 1h 26mn\nBit rate : 1 869 Kbps\nWidth : 620 pixels\nHeight : 320 pixels\nDisplay aspect ratio : 1.938\nFrame rate : 25.000 fps\nColor space : YUV\nChroma subsampling : 4:2:0\nBit depth : 8 bits\nScan type : Progressive\nCompression mode : Lossy\nBits/(Pixel*Frame) : 0.377\nStream size : 1.13 GiB (93%)\nWriting library : XviD 73\n\nAudio\nID : 1\nFormat : AC-3\nFormat/Info : Audio Coding 3\nMode extension : CM (complete main)\nFormat settings, Endianness : Big\nCodec ID : 2000\nDuration : 1h 26mn\nBit rate mode : Constant\nBit rate : 128 Kbps\nChannel(s) : 2 channels\nChannel positions : Front: L R\nSampling rate : 44.1 KHz\nCompression mode : Lossy\nStream size : 78.9 MiB (6%)\nAlignment : Aligned on interleaves\nInterleave, duration : 35 ms (0.87 video frame)\n &lt;a href=&quot;\nhttp://extraimago.com/image/RYP&quot; rel=&quot;nofollow&quot; target=&quot;_NEW&quot;&gt;\nhttp://extraimago.com/image/RYP&lt;/a&gt; &lt;a href=&quot;\nhttp://extraimago.com/image/RYX&quot; rel=&quot;nofollow&quot; target=&quot;_NEW&quot;&gt;\nhttp://extraimago.com/image/RYX&lt;/a&gt; &lt;a href=&quot;\nhttp://extraimago.com/image/RYg&quot; rel=&quot;nofollow&quot; target=&quot;_NEW&quot;&gt;\nhttp://extraimago.com/image/RYg&lt;/a&gt; &lt;a href=&quot;\nhttp://extraimago.com/image/RY5&quot; rel=&quot;nofollow&quot; target=&quot;_NEW&quot;&gt;\nhttp://extraimago.com/image/RY5&lt;/a&gt; &lt;a href=&quot;\nhttp://extraimago.com/image/RYD&quot; rel=&quot;nofollow&quot; target=&quot;_NEW&quot;&gt;\nhttp://extraimago.com/image/RYD&lt;/a&gt; &lt;a href=&quot;\nhttp://extraimago.com/image/RYF&quot; rel=&quot;nofollow&quot; target=&quot;_NEW&quot;&gt;\nhttp://extraimago.com/image/RYF&lt;/a&gt; &lt;a href=&quot;\nhttp://extraimago.com/image/RYH&quot; rel=&quot;nofollow&quot; target=&quot;_NEW&quot;&gt;\nhttp://extraimago.com/image/RYH&lt;/a&gt; &lt;a href=&quot;\nhttp://extraimago.com/image/RYk&quot; rel=&quot;nofollow&quot; target=&quot;_NEW&quot;&gt;\nhttp://extraimago.com/image/RYk&lt;/a&gt; &lt;a href=&quot;\nhttp://extraimago.com/image/RYo&quot; rel=&quot;nofollow&quot; target=&quot;_NEW&quot;&gt;\nhttp://extraimago.com/image/RYo&lt;/a&gt;",
  "parsed": {
    "xt": "urn:btih:9f85c9d7c8b075f1d7136a785f5fab4d4a74f0b5",
    "dn": "American Ultra {2015} HDCAM XVID AC3-MRG",
    "tr": [
      "udp://exodus.desync.com:6969",
      "udp://open.demonii.com:1337",
      "udp://tracker.coppersurfer.tk:6969",
      "udp://tracker.openbittorrent.com:80"
    ],
    "infoHash": "9f85c9d7c8b075f1d7136a785f5fab4d4a74f0b5",
    "infoHashBuffer": {
      "type": "Buffer",
      "data": [
        159,
        133,
        201,
        215,
        200,
        176,
        117,
        241,
        215,
        19,
        106,
        120,
        95,
        95,
        171,
        77,
        74,
        116,
        240,
        181
      ]
    },
    "name": "American Ultra {2015} HDCAM XVID AC3-MRG",
    "announce": [
      "udp://exodus.desync.com:6969",
      "udp://open.demonii.com:1337",
      "udp://tracker.coppersurfer.tk:6969",
      "udp://tracker.openbittorrent.com:80"
    ],
    "urlList": []
  },
  "previous": 16,
  "peers": 0,
  "last_updated": "2016-12-27T08:36:23.812Z"
}